<mxfile host="Electron" modified="2023-09-27T17:07:36.317Z" agent="Mozilla/5.0 (Macintosh; Intel Mac OS X 10_15_7) AppleWebKit/537.36 (KHTML, like Gecko) draw.io/21.7.5 Chrome/114.0.5735.289 Electron/25.8.1 Safari/537.36" etag="Gqjos5rawCj9c3AD4GZo" version="21.7.5" type="device">
  <diagram name="Page-1" id="02Nq9jW7B3owufkaCvR9">
    <mxGraphModel dx="1240" dy="1428" grid="1" gridSize="10" guides="1" tooltips="1" connect="1" arrows="1" fold="1" page="1" pageScale="1" pageWidth="850" pageHeight="1100" math="0" shadow="0">
      <root>
        <mxCell id="0" />
        <mxCell id="1" parent="0" />
        <mxCell id="7hafV3GSP3RzsJZpvLI7-1" value="Login Page" style="shape=umlLifeline;perimeter=lifelinePerimeter;whiteSpace=wrap;html=1;container=1;dropTarget=0;collapsible=0;recursiveResize=0;outlineConnect=0;portConstraint=eastwest;newEdgeStyle={&quot;curved&quot;:0,&quot;rounded&quot;:0};" vertex="1" parent="1">
          <mxGeometry x="320" y="480" width="100" height="880" as="geometry" />
        </mxCell>
        <mxCell id="7hafV3GSP3RzsJZpvLI7-3" value="" style="endArrow=none;dashed=1;html=1;rounded=0;" edge="1" parent="1" source="7hafV3GSP3RzsJZpvLI7-18">
          <mxGeometry width="50" height="50" relative="1" as="geometry">
            <mxPoint x="620" y="840" as="sourcePoint" />
            <mxPoint x="620" y="520" as="targetPoint" />
          </mxGeometry>
        </mxCell>
        <mxCell id="7hafV3GSP3RzsJZpvLI7-4" value="LogController" style="rounded=0;whiteSpace=wrap;html=1;" vertex="1" parent="1">
          <mxGeometry x="570" y="480" width="100" height="40" as="geometry" />
        </mxCell>
        <mxCell id="7hafV3GSP3RzsJZpvLI7-5" value="" style="endArrow=none;dashed=1;html=1;rounded=0;" edge="1" parent="1" source="7hafV3GSP3RzsJZpvLI7-23" target="7hafV3GSP3RzsJZpvLI7-6">
          <mxGeometry width="50" height="50" relative="1" as="geometry">
            <mxPoint x="1320" y="840" as="sourcePoint" />
            <mxPoint x="630" y="530" as="targetPoint" />
          </mxGeometry>
        </mxCell>
        <mxCell id="7hafV3GSP3RzsJZpvLI7-6" value="Database" style="shape=cylinder3;whiteSpace=wrap;html=1;boundedLbl=1;backgroundOutline=1;size=15;" vertex="1" parent="1">
          <mxGeometry x="1290" y="450" width="60" height="80" as="geometry" />
        </mxCell>
        <mxCell id="7hafV3GSP3RzsJZpvLI7-8" value="Actor" style="shape=umlActor;verticalLabelPosition=bottom;verticalAlign=top;html=1;" vertex="1" parent="1">
          <mxGeometry x="140" y="440" width="30" height="60" as="geometry" />
        </mxCell>
        <mxCell id="7hafV3GSP3RzsJZpvLI7-9" value="" style="endArrow=none;dashed=1;html=1;rounded=0;" edge="1" parent="1">
          <mxGeometry width="50" height="50" relative="1" as="geometry">
            <mxPoint x="160" y="1360" as="sourcePoint" />
            <mxPoint x="160" y="520" as="targetPoint" />
          </mxGeometry>
        </mxCell>
        <mxCell id="7hafV3GSP3RzsJZpvLI7-10" value="Input username or email" style="endArrow=classic;html=1;rounded=0;entryX=0.062;entryY=0.041;entryDx=0;entryDy=0;entryPerimeter=0;" edge="1" parent="1" target="7hafV3GSP3RzsJZpvLI7-36">
          <mxGeometry width="50" height="50" relative="1" as="geometry">
            <mxPoint x="160" y="560" as="sourcePoint" />
            <mxPoint x="360" y="560" as="targetPoint" />
          </mxGeometry>
        </mxCell>
        <mxCell id="7hafV3GSP3RzsJZpvLI7-11" value="doPost()" style="endArrow=classic;html=1;rounded=0;entryX=-0.044;entryY=0.052;entryDx=0;entryDy=0;entryPerimeter=0;" edge="1" parent="1" source="7hafV3GSP3RzsJZpvLI7-1" target="7hafV3GSP3RzsJZpvLI7-18">
          <mxGeometry width="50" height="50" relative="1" as="geometry">
            <mxPoint x="410" y="560" as="sourcePoint" />
            <mxPoint x="619" y="560" as="targetPoint" />
          </mxGeometry>
        </mxCell>
        <mxCell id="7hafV3GSP3RzsJZpvLI7-13" value="UserDAO" style="rounded=0;whiteSpace=wrap;html=1;" vertex="1" parent="1">
          <mxGeometry x="820" y="480" width="100" height="40" as="geometry" />
        </mxCell>
        <mxCell id="7hafV3GSP3RzsJZpvLI7-14" value="" style="endArrow=none;dashed=1;html=1;rounded=0;" edge="1" parent="1">
          <mxGeometry width="50" height="50" relative="1" as="geometry">
            <mxPoint x="870" y="1360" as="sourcePoint" />
            <mxPoint x="870" y="520" as="targetPoint" />
          </mxGeometry>
        </mxCell>
        <mxCell id="7hafV3GSP3RzsJZpvLI7-15" value="EmailSender" style="rounded=0;whiteSpace=wrap;html=1;" vertex="1" parent="1">
          <mxGeometry x="1050" y="480" width="100" height="40" as="geometry" />
        </mxCell>
        <mxCell id="7hafV3GSP3RzsJZpvLI7-16" value="" style="endArrow=none;dashed=1;html=1;rounded=0;" edge="1" parent="1" source="7hafV3GSP3RzsJZpvLI7-42">
          <mxGeometry width="50" height="50" relative="1" as="geometry">
            <mxPoint x="1099" y="1360" as="sourcePoint" />
            <mxPoint x="1099.44" y="520" as="targetPoint" />
          </mxGeometry>
        </mxCell>
        <mxCell id="7hafV3GSP3RzsJZpvLI7-19" value="" style="endArrow=none;dashed=1;html=1;rounded=0;" edge="1" parent="1" target="7hafV3GSP3RzsJZpvLI7-18">
          <mxGeometry width="50" height="50" relative="1" as="geometry">
            <mxPoint x="620" y="920" as="sourcePoint" />
            <mxPoint x="620" y="520" as="targetPoint" />
          </mxGeometry>
        </mxCell>
        <mxCell id="7hafV3GSP3RzsJZpvLI7-18" value="" style="rounded=0;whiteSpace=wrap;html=1;" vertex="1" parent="1">
          <mxGeometry x="615" y="540" width="10" height="740" as="geometry" />
        </mxCell>
        <mxCell id="7hafV3GSP3RzsJZpvLI7-20" value="" style="rounded=0;whiteSpace=wrap;html=1;" vertex="1" parent="1">
          <mxGeometry x="625" y="600" width="10" height="620" as="geometry" />
        </mxCell>
        <mxCell id="7hafV3GSP3RzsJZpvLI7-21" value="forgotPassword()" style="endArrow=classic;html=1;rounded=0;exitX=0.962;exitY=0.067;exitDx=0;exitDy=0;exitPerimeter=0;entryX=0.962;entryY=0.129;entryDx=0;entryDy=0;entryPerimeter=0;" edge="1" parent="1" source="7hafV3GSP3RzsJZpvLI7-18" target="7hafV3GSP3RzsJZpvLI7-20">
          <mxGeometry x="0.2378" width="50" height="50" relative="1" as="geometry">
            <mxPoint x="625.0000000000001" y="569.29" as="sourcePoint" />
            <mxPoint x="634.33" y="622.2" as="targetPoint" />
            <Array as="points">
              <mxPoint x="670" y="590" />
              <mxPoint x="710" y="590" />
              <mxPoint x="710" y="600" />
              <mxPoint x="710" y="680" />
            </Array>
            <mxPoint as="offset" />
          </mxGeometry>
        </mxCell>
        <mxCell id="7hafV3GSP3RzsJZpvLI7-22" value="executeQuery()" style="endArrow=classic;html=1;rounded=0;entryX=-0.062;entryY=0.6;entryDx=0;entryDy=0;exitX=1;exitY=0.25;exitDx=0;exitDy=0;entryPerimeter=0;" edge="1" parent="1" source="7hafV3GSP3RzsJZpvLI7-26" target="7hafV3GSP3RzsJZpvLI7-23">
          <mxGeometry x="-0.6" width="50" height="50" relative="1" as="geometry">
            <mxPoint x="880" y="650" as="sourcePoint" />
            <mxPoint x="1310" y="650" as="targetPoint" />
            <mxPoint as="offset" />
          </mxGeometry>
        </mxCell>
        <mxCell id="7hafV3GSP3RzsJZpvLI7-24" value="" style="endArrow=none;dashed=1;html=1;rounded=0;" edge="1" parent="1" target="7hafV3GSP3RzsJZpvLI7-23">
          <mxGeometry width="50" height="50" relative="1" as="geometry">
            <mxPoint x="1320" y="1360" as="sourcePoint" />
            <mxPoint x="1320" y="530" as="targetPoint" />
          </mxGeometry>
        </mxCell>
        <mxCell id="7hafV3GSP3RzsJZpvLI7-23" value="" style="rounded=0;whiteSpace=wrap;html=1;" vertex="1" parent="1">
          <mxGeometry x="1315" y="662.5" width="10" height="127.5" as="geometry" />
        </mxCell>
        <mxCell id="7hafV3GSP3RzsJZpvLI7-26" value="" style="rounded=0;whiteSpace=wrap;html=1;" vertex="1" parent="1">
          <mxGeometry x="860" y="610" width="20" height="520" as="geometry" />
        </mxCell>
        <mxCell id="7hafV3GSP3RzsJZpvLI7-27" value="isUsernameExit()" style="endArrow=classic;html=1;rounded=0;exitX=1;exitY=0.194;exitDx=0;exitDy=0;exitPerimeter=0;" edge="1" parent="1" source="7hafV3GSP3RzsJZpvLI7-20">
          <mxGeometry width="50" height="50" relative="1" as="geometry">
            <mxPoint x="640" y="640" as="sourcePoint" />
            <mxPoint x="860" y="720" as="targetPoint" />
          </mxGeometry>
        </mxCell>
        <mxCell id="7hafV3GSP3RzsJZpvLI7-29" value="return Result" style="endArrow=classic;html=1;rounded=0;exitX=-0.026;exitY=0.765;exitDx=0;exitDy=0;exitPerimeter=0;dashed=1;entryX=1.006;entryY=0.288;entryDx=0;entryDy=0;entryPerimeter=0;" edge="1" parent="1" source="7hafV3GSP3RzsJZpvLI7-23" target="7hafV3GSP3RzsJZpvLI7-26">
          <mxGeometry x="-0.5167" width="50" height="50" relative="1" as="geometry">
            <mxPoint x="1310" y="760" as="sourcePoint" />
            <mxPoint x="1110" y="760" as="targetPoint" />
            <Array as="points">
              <mxPoint x="1210" y="760" />
            </Array>
            <mxPoint as="offset" />
          </mxGeometry>
        </mxCell>
        <mxCell id="7hafV3GSP3RzsJZpvLI7-31" value="Alt" style="shape=umlFrame;whiteSpace=wrap;html=1;pointerEvents=0;" vertex="1" parent="1">
          <mxGeometry x="290" y="770" width="610" height="570" as="geometry" />
        </mxCell>
        <mxCell id="7hafV3GSP3RzsJZpvLI7-32" value="return true" style="endArrow=classic;html=1;rounded=0;exitX=-0.026;exitY=0.765;exitDx=0;exitDy=0;exitPerimeter=0;dashed=1;entryX=1.046;entryY=0.419;entryDx=0;entryDy=0;entryPerimeter=0;" edge="1" parent="1" target="7hafV3GSP3RzsJZpvLI7-20">
          <mxGeometry x="-0.0258" y="-10" width="50" height="50" relative="1" as="geometry">
            <mxPoint x="859" y="860" as="sourcePoint" />
            <mxPoint x="640" y="860" as="targetPoint" />
            <Array as="points">
              <mxPoint x="754" y="860" />
            </Array>
            <mxPoint as="offset" />
          </mxGeometry>
        </mxCell>
        <mxCell id="7hafV3GSP3RzsJZpvLI7-33" value="return false" style="endArrow=classic;html=1;rounded=0;exitX=0;exitY=0.75;exitDx=0;exitDy=0;dashed=1;entryX=1.007;entryY=0.646;entryDx=0;entryDy=0;entryPerimeter=0;" edge="1" parent="1">
          <mxGeometry x="-0.0258" y="-10" width="50" height="50" relative="1" as="geometry">
            <mxPoint x="859.93" y="1080" as="sourcePoint" />
            <mxPoint x="634.9999999999999" y="1080.52" as="targetPoint" />
            <Array as="points" />
            <mxPoint as="offset" />
          </mxGeometry>
        </mxCell>
        <mxCell id="7hafV3GSP3RzsJZpvLI7-36" value="" style="rounded=0;whiteSpace=wrap;html=1;" vertex="1" parent="1">
          <mxGeometry x="365" y="530" width="10" height="740" as="geometry" />
        </mxCell>
        <mxCell id="7hafV3GSP3RzsJZpvLI7-39" value="" style="endArrow=none;dashed=1;html=1;rounded=0;entryX=1.001;entryY=0.385;entryDx=0;entryDy=0;entryPerimeter=0;exitX=0.003;exitY=0.384;exitDx=0;exitDy=0;exitPerimeter=0;" edge="1" parent="1">
          <mxGeometry width="50" height="50" relative="1" as="geometry">
            <mxPoint x="291.8299999999999" y="1040" as="sourcePoint" />
            <mxPoint x="900.6099999999999" y="1040.44" as="targetPoint" />
          </mxGeometry>
        </mxCell>
        <mxCell id="7hafV3GSP3RzsJZpvLI7-40" value="return error message" style="endArrow=classic;html=1;rounded=0;dashed=1;entryX=1.094;entryY=0.771;entryDx=0;entryDy=0;entryPerimeter=0;exitX=0.006;exitY=0.757;exitDx=0;exitDy=0;exitPerimeter=0;" edge="1" parent="1" source="7hafV3GSP3RzsJZpvLI7-18" target="7hafV3GSP3RzsJZpvLI7-36">
          <mxGeometry x="-0.0258" y="-10" width="50" height="50" relative="1" as="geometry">
            <mxPoint x="610" y="1100" as="sourcePoint" />
            <mxPoint x="390.06999999999994" y="1040.52" as="targetPoint" />
            <Array as="points" />
            <mxPoint as="offset" />
          </mxGeometry>
        </mxCell>
        <mxCell id="7hafV3GSP3RzsJZpvLI7-43" value="" style="endArrow=none;dashed=1;html=1;rounded=0;" edge="1" parent="1" target="7hafV3GSP3RzsJZpvLI7-42">
          <mxGeometry width="50" height="50" relative="1" as="geometry">
            <mxPoint x="1099" y="1360" as="sourcePoint" />
            <mxPoint x="1099.44" y="520" as="targetPoint" />
          </mxGeometry>
        </mxCell>
        <mxCell id="7hafV3GSP3RzsJZpvLI7-42" value="" style="rounded=0;whiteSpace=wrap;html=1;" vertex="1" parent="1">
          <mxGeometry x="1090" y="880" width="20" height="220" as="geometry" />
        </mxCell>
        <mxCell id="7hafV3GSP3RzsJZpvLI7-44" value="sendToEmail(subject, html)" style="endArrow=classic;html=1;rounded=0;entryX=-0.054;entryY=0.18;entryDx=0;entryDy=0;entryPerimeter=0;exitX=0.926;exitY=0.095;exitDx=0;exitDy=0;exitPerimeter=0;" edge="1" parent="1" target="7hafV3GSP3RzsJZpvLI7-42">
          <mxGeometry x="-0.4458" y="10" width="50" height="50" relative="1" as="geometry">
            <mxPoint x="635" y="920" as="sourcePoint" />
            <mxPoint x="861" y="918" as="targetPoint" />
            <mxPoint as="offset" />
          </mxGeometry>
        </mxCell>
        <mxCell id="7hafV3GSP3RzsJZpvLI7-45" value="" style="rounded=0;whiteSpace=wrap;html=1;" vertex="1" parent="1">
          <mxGeometry x="1100" y="950" width="20" height="100" as="geometry" />
        </mxCell>
        <mxCell id="7hafV3GSP3RzsJZpvLI7-46" value="resetPasswordNotifcation" style="endArrow=classic;html=1;rounded=0;entryX=0.939;entryY=0.301;entryDx=0;entryDy=0;entryPerimeter=0;" edge="1" parent="1" target="7hafV3GSP3RzsJZpvLI7-45">
          <mxGeometry width="50" height="50" relative="1" as="geometry">
            <mxPoint x="1110" y="935" as="sourcePoint" />
            <mxPoint x="1220" y="970" as="targetPoint" />
            <Array as="points">
              <mxPoint x="1200" y="935" />
              <mxPoint x="1200" y="980" />
              <mxPoint x="1160" y="980" />
            </Array>
          </mxGeometry>
        </mxCell>
        <mxCell id="7hafV3GSP3RzsJZpvLI7-48" value="return true" style="endArrow=classic;html=1;rounded=0;exitX=-0.129;exitY=0.538;exitDx=0;exitDy=0;exitPerimeter=0;dashed=1;entryX=1.071;entryY=0.644;entryDx=0;entryDy=0;entryPerimeter=0;" edge="1" parent="1" source="7hafV3GSP3RzsJZpvLI7-42" target="7hafV3GSP3RzsJZpvLI7-20">
          <mxGeometry x="-0.7222" y="-10" width="50" height="50" relative="1" as="geometry">
            <mxPoint x="1090" y="1020" as="sourcePoint" />
            <mxPoint x="866" y="1020" as="targetPoint" />
            <Array as="points">
              <mxPoint x="985" y="998" />
            </Array>
            <mxPoint as="offset" />
          </mxGeometry>
        </mxCell>
        <mxCell id="7hafV3GSP3RzsJZpvLI7-49" value="return success message" style="endArrow=classic;html=1;rounded=0;dashed=1;entryX=0.867;entryY=0.662;entryDx=0;entryDy=0;entryPerimeter=0;" edge="1" parent="1" target="7hafV3GSP3RzsJZpvLI7-36">
          <mxGeometry x="0.3488" y="-10" width="50" height="50" relative="1" as="geometry">
            <mxPoint x="535" y="1020.31" as="sourcePoint" />
            <mxPoint x="380" y="1020" as="targetPoint" />
            <Array as="points">
              <mxPoint x="615" y="1020" />
            </Array>
            <mxPoint as="offset" />
          </mxGeometry>
        </mxCell>
      </root>
    </mxGraphModel>
  </diagram>
</mxfile>
